<?xml version="1.0" encoding="utf-8"?>
<!-- Generator: Adobe Illustrator 14.0.0, SVG Export Plug-In . SVG Version: 6.00 Build 43363)  -->
<!DOCTYPE svg PUBLIC "-//W3C//DTD SVG 1.1//EN" "http://www.w3.org/Graphics/SVG/1.1/DTD/svg11.dtd">
<svg version="1.1" xmlns="http://www.w3.org/2000/svg" xmlns:xlink="http://www.w3.org/1999/xlink" x="0px" y="0px" width="2272px"
	 height="1872px" viewBox="0 0 2272 1872" enable-background="new 0 0 2272 1872" xml:space="preserve">
<g id="back">
	<rect x="0.031" y="-0.022" fill-rule="evenodd" clip-rule="evenodd" fill="#FFFFFF" width="2271.938" height="1872.022"/>
</g>
<g id="Geometric_Flowers_Clipart">
	<g>
		<path fill="#0C0C0C" d="M598.381,513.157c0,0-12.301-76.726-78.724-89.026C519.657,424.13,522.118,503.779,598.381,513.157z"/>
		<path fill="#978B1F" d="M519.657,424.13l78.621,88.449C597.048,505.803,582.854,435.833,519.657,424.13z"/>
		<path fill="#0C0C0C" d="M600.752,513.157c0,0,12.3-76.726,78.723-89.026C679.475,424.13,677.015,503.779,600.752,513.157z"/>
		<path fill="#978B1F" d="M679.475,424.13l-78.621,88.449C602.085,505.803,616.279,435.833,679.475,424.13z"/>
		<path fill="#0C0C0C" d="M598.176,620.105c0,0-14.431-90.011-92.354-104.441C505.821,515.664,508.707,609.104,598.176,620.105z"/>
		<path fill="#978B1F" d="M505.821,515.664l92.234,103.764C596.611,611.479,579.959,529.394,505.821,515.664z"/>
		<path fill="#0C0C0C" d="M600.957,620.105c0,0,14.43-90.011,92.354-104.441C693.312,515.664,690.425,609.104,600.957,620.105z"/>
		<path fill="#978B1F" d="M693.312,515.664l-92.234,103.764C602.521,611.479,619.173,529.394,693.312,515.664z"/>
		<path fill="#0C0C0C" d="M598.035,732.346c0,0-15.893-99.132-101.713-115.025C496.322,617.321,499.5,720.23,598.035,732.346z"/>
		<path fill="#978B1F" d="M496.322,617.321L597.902,731.6C596.312,722.845,577.973,632.442,496.322,617.321z"/>
		<path fill="#0C0C0C" d="M601.098,732.346c0,0,15.893-99.132,101.713-115.025C702.811,617.321,699.632,720.23,601.098,732.346z"/>
		<path fill="#978B1F" d="M702.811,617.321L601.23,731.6C602.82,722.845,621.16,632.442,702.811,617.321z"/>
		<g>
			<line fill="#0C0C0C" x1="599.584" y1="409.735" x2="599.584" y2="852.554"/>
			<path d="M599.584,857.474c-2.717,0-4.92-2.203-4.92-4.92V409.735c0-2.717,2.203-4.92,4.92-4.92c2.717,0,4.92,2.203,4.92,4.92
				v442.819C604.504,855.271,602.301,857.474,599.584,857.474z"/>
		</g>
		<path fill="#F796B5" d="M602.904,410.996c-1.299,2.715-5.113,2.836-6.568,0.201c-21.729-39.336-132.187-250.377,3.718-242.488
			C730.885,176.303,638.148,337.307,602.904,410.996z"/>
		<path fill="#F25D23" d="M600.054,168.709c1.201,0.07,2.375,0.158,3.532,0.257c1.059,0.09,1.857,0.996,1.833,2.058l-5.393,239.079
			c-0.046,2.061-2.785,2.734-3.781,0.93C574.3,371.275,464.338,160.832,600.054,168.709z"/>
		<path fill="#F35E24" d="M592.427,413.466c3.03,1.517,6.496-1.023,5.967-4.37c-6.554-41.439-41.031-226.638-124.275-154.347
			C393.35,324.89,531.254,382.835,592.427,413.466z"/>
		<path fill="#F796B5" d="M474.119,254.749c-0.597,0.519-1.178,1.036-1.747,1.553c-0.89,0.81-0.982,2.178-0.226,3.114
			l122.169,151.18c1.469,1.818,4.401,0.529,4.035-1.78C591.685,366.829,557.176,182.619,474.119,254.749z"/>
		<path fill="#F796B5" d="M607.443,413.061c-3.378,1.687-7.226-1.158-6.629-4.887c6.909-43.183,41.486-225.194,124.129-153.426
			C805.356,324.582,669.012,382.326,607.443,413.061z"/>
		<path fill="#F25D23" d="M724.942,254.749L724.942,254.749c1.883,1.636,2.132,4.469,0.564,6.409L604.601,410.774
			c-1.429,1.769-4.281,0.518-3.926-1.729C607.249,367.507,641.731,182.487,724.942,254.749z"/>
	</g>
	<g>
		<g>
			<line fill="#0C0C0C" x1="1182.655" y1="409.735" x2="1182.655" y2="852.554"/>
			<path d="M1182.655,857.474c-2.717,0-4.92-2.203-4.92-4.92V409.735c0-2.717,2.203-4.92,4.92-4.92s4.92,2.203,4.92,4.92v442.819
				C1187.575,855.271,1185.372,857.474,1182.655,857.474z"/>
		</g>
		<path fill="#0C0C0C" d="M1187.575,417.115c0,0,52.764,8.459,61.223,54.137C1248.798,471.252,1194.024,469.561,1187.575,417.115z"
			/>
		<path fill="#978B1F" d="M1248.798,471.252l-60.825-54.067C1192.633,418.032,1240.75,427.793,1248.798,471.252z"/>
		<path fill="#0C0C0C" d="M1177.7,417.115c0,0-52.764,8.459-61.223,54.137C1116.478,471.252,1171.251,469.561,1177.7,417.115z"/>
		<path fill="#978B1F" d="M1116.478,471.252l60.825-54.067C1172.643,418.032,1124.525,427.793,1116.478,471.252z"/>
		<path fill="#0C0C0C" d="M1177.735,669.521c0,0,0-105.621-121.686-133.702C1056.05,535.819,1059.17,669.521,1177.735,669.521z"/>
		<path fill="#978B1F" d="M1187.575,669.521c0,0,0-105.621,121.686-133.702C1309.261,535.819,1306.141,669.521,1187.575,669.521z"/>
		<polygon fill="#0C0C0C" points="1182.822,421.505 1266.959,267.633 1182.487,153.641 1098.352,267.633 1182.488,421.505 
			1182.487,422.119 1182.655,421.811 1182.823,422.119 		"/>
		<path fill="#F35A3B" d="M1182.487,422.119L1182.487,422.119c-69.737,0-126.27-56.533-126.27-126.269V177.099h0
			c69.736,0,126.269,56.532,126.269,126.269V422.119z"/>
		<path fill="#F796B5" d="M1182.823,422.119L1182.823,422.119c69.736,0,126.27-56.533,126.27-126.269V177.099l0,0
			c-69.736,0-126.27,56.532-126.27,126.269V422.119z"/>
		<polygon fill="#978B1F" points="1163.268,478.301 1177.735,491.235 1177.735,478.301 1177.735,465.368 		"/>
		<polygon fill="#978B1F" points="1202.044,509.211 1187.575,496.277 1187.575,509.211 1187.575,522.145 		"/>
		<polygon fill="#978B1F" points="1163.268,539.244 1177.735,552.178 1177.735,539.244 1177.735,526.31 		"/>
		<polygon fill="#978B1F" points="1202.044,569.684 1187.575,556.75 1187.575,569.684 1187.575,582.617 		"/>
		<polygon fill="#978B1F" points="1163.268,599.716 1177.735,612.65 1177.735,599.716 1177.735,586.782 		"/>
		<polygon fill="#978B1F" points="1163.268,696.13 1177.735,709.064 1177.735,696.13 1177.735,683.196 		"/>
		<polygon fill="#978B1F" points="1202.044,727.04 1187.575,714.106 1187.575,727.04 1187.575,739.974 		"/>
		<polygon fill="#978B1F" points="1163.268,757.072 1177.735,770.006 1177.735,757.072 1177.735,744.139 		"/>
		<polygon fill="#978B1F" points="1202.044,787.512 1187.575,774.578 1187.575,787.512 1187.575,800.446 		"/>
		<polygon fill="#978B1F" points="1163.268,817.545 1177.735,830.479 1177.735,817.545 1177.735,804.611 		"/>
	</g>
	<g>
		<path fill="#CE4129" d="M1710.215,394.543l37.847-96.244c8.694-22.111-2.181-47.084-24.292-55.779l-96.243-37.846h-0.001
			C1597.93,279.939,1634.95,364.946,1710.215,394.543L1710.215,394.543z"/>
		<path fill="#D37194" d="M1740.203,394.543l-37.846-96.244c-8.695-22.111,2.181-47.084,24.292-55.779l96.243-37.846l0,0
			C1852.489,279.939,1815.469,364.946,1740.203,394.543L1740.203,394.543z"/>
		<path fill="#0C0C0C" d="M1725.209,409.735l73.127-73.127c16.801-16.8,16.801-44.039,0-60.839l-73.127-73.127l-73.127,73.127
			c-16.8,16.8-16.8,44.039,0,60.839L1725.209,409.735z"/>
		<path fill="#978B1F" d="M1730.13,559.621c0,0,0-52.811,60.843-66.851C1790.973,492.77,1789.412,559.621,1730.13,559.621z"/>
		<path fill="#0C0C0C" d="M1659.411,569.245c0,0,0,52.811,60.843,66.851C1720.254,636.096,1718.693,569.245,1659.411,569.245z"/>
		<path fill="#0C0C0C" d="M1658.358,470.578c0,0,52.811,0,66.851-60.843C1725.209,409.735,1658.358,411.295,1658.358,470.578z"/>
		<path fill="#0C0C0C" d="M1725.209,409.735c0,0,52.811,0,66.852,60.843C1792.061,470.578,1725.209,469.018,1725.209,409.735z"/>
		<path fill="#978B1F" d="M1730.13,724.699c0,0,0-52.811,60.843-66.851C1790.973,657.848,1789.412,724.699,1730.13,724.699z"/>
		<path fill="#0C0C0C" d="M1659.411,734.323c0,0,0,52.811,60.843,66.851C1720.254,801.174,1718.693,734.323,1659.411,734.323z"/>
		<g>
			<line fill="#0C0C0C" x1="1725.209" y1="409.735" x2="1725.209" y2="852.554"/>
			<path d="M1725.209,857.474c-2.717,0-4.92-2.203-4.92-4.92V409.735c0-2.717,2.203-4.92,4.92-4.92c2.718,0,4.921,2.203,4.921,4.92
				v442.819C1730.13,855.271,1727.927,857.474,1725.209,857.474z"/>
		</g>
		<path fill="#F35A3B" d="M1725.209,409.735L1725.209,409.735c-80.875,0-146.437-65.562-146.437-146.437l0,0l0,0
			C1659.647,263.298,1725.209,328.86,1725.209,409.735L1725.209,409.735z"/>
		<path fill="#F796B5" d="M1725.209,409.735L1725.209,409.735c80.875,0,146.438-65.562,146.438-146.437l0,0l0,0
			C1790.771,263.298,1725.209,328.86,1725.209,409.735L1725.209,409.735z"/>
		<polygon fill="#978B1F" points="1710.741,504.169 1725.209,517.103 1725.209,504.169 1725.209,491.235 		"/>
		<polygon fill="#978B1F" points="1739.678,593.39 1725.209,606.324 1725.209,593.39 1725.209,580.457 		"/>
		<polygon fill="#978B1F" points="1710.741,670.781 1725.209,683.715 1725.209,670.781 1725.209,657.848 		"/>
		<polygon fill="#978B1F" points="1739.678,760.002 1725.209,772.937 1725.209,760.002 1725.209,747.069 		"/>
	</g>
	<g>
		<g>
			<line fill="#0C0C0C" x1="594.599" y1="1270.621" x2="594.599" y2="1713.439"/>
			<path d="M594.599,1718.359c-2.717,0-4.92-2.203-4.92-4.92v-442.818c0-2.718,2.203-4.921,4.92-4.921s4.92,2.203,4.92,4.921
				v442.818C599.52,1716.156,597.316,1718.359,594.599,1718.359z"/>
		</g>
		<g>
			<path fill="#F37D4F" d="M634.647,1003.978L634.647,1003.978c9.383,10.039,22.646,15.533,36.379,15.068l0,0
				c27.535-0.931,50.105,21.641,49.174,49.175l0,0c-0.464,13.733,5.03,26.996,15.069,36.379l0,0
				c20.128,18.813,20.128,50.731,0,69.543l0,0c-10.039,9.383-15.533,22.646-15.069,36.38l0,0
				c0.931,27.534-21.64,50.104-49.174,49.175l0,0c-13.733-0.465-26.997,5.029-36.379,15.068l0,0
				c-18.812,20.128-50.731,20.128-69.543,0l0,0c-9.383-10.039-22.646-15.533-36.379-15.068l0,0
				c-27.535,0.93-50.105-21.641-49.174-49.175l0,0c0.464-13.733-5.03-26.997-15.069-36.38l0,0c-20.128-18.812-20.128-50.73,0-69.543
				l0,0c10.039-9.383,15.533-22.646,15.069-36.379l0,0c-0.931-27.534,21.64-50.105,49.174-49.175l0,0
				c13.733,0.465,26.997-5.029,36.379-15.068l0,0C583.917,983.85,615.836,983.85,634.647,1003.978z"/>
			<path fill="#F25D23" d="M628.39,1028.346L628.39,1028.346c7.694,8.232,18.57,12.737,29.832,12.356l0,0
				c22.579-0.763,41.087,17.745,40.324,40.324l0,0c-0.38,11.262,4.125,22.138,12.356,29.832h0c16.505,15.426,16.505,41.601,0,57.026
				h0c-8.232,7.694-12.737,18.57-12.356,29.832l0,0c0.763,22.579-17.745,41.087-40.324,40.324l0,0
				c-11.261-0.381-22.138,4.124-29.832,12.356l0,0c-15.426,16.505-41.601,16.505-57.027,0l0,0
				c-7.694-8.232-18.57-12.737-29.832-12.356h0c-22.579,0.763-41.087-17.745-40.324-40.324l0,0
				c0.38-11.262-4.125-22.138-12.357-29.832l0,0c-16.505-15.426-16.505-41.601,0-57.026l0,0c8.232-7.694,12.737-18.57,12.357-29.832
				l0,0c-0.763-22.579,17.745-41.087,40.324-40.324h0c11.261,0.381,22.138-4.124,29.832-12.356l0,0
				C586.789,1011.84,612.963,1011.84,628.39,1028.346z"/>
			<circle fill="#F796B5" cx="599.876" cy="1139.371" r="79.422"/>
			<circle fill="#F25D23" cx="599.876" cy="1139.371" r="58.746"/>
			<path fill="#0C0C0C" d="M610.458,1098.167L610.458,1098.167c2.855,3.056,6.892,4.728,11.071,4.586l0,0
				c8.379-0.283,15.248,6.586,14.965,14.966l0,0c-0.142,4.179,1.531,8.215,4.585,11.07l0,0c6.126,5.726,6.126,15.439,0,21.164l0,0
				c-3.055,2.855-4.727,6.893-4.585,11.071l0,0c0.283,8.38-6.586,15.249-14.965,14.966l0,0c-4.179-0.142-8.216,1.53-11.071,4.586
				l0,0c-5.725,6.125-15.439,6.125-21.164,0l0,0c-2.855-3.056-6.892-4.728-11.071-4.586l0,0
				c-8.379,0.283-15.248-6.586-14.965-14.966l0,0c0.141-4.179-1.531-8.216-4.586-11.071l0,0c-6.125-5.725-6.125-15.438,0-21.164l0,0
				c3.055-2.855,4.727-6.892,4.586-11.07l0,0c-0.283-8.38,6.585-15.249,14.965-14.966l0,0c4.18,0.142,8.216-1.53,11.071-4.586l0,0
				C595.019,1092.042,604.733,1092.042,610.458,1098.167z"/>
		</g>
		<g>
			<path fill="#0C0C0C" d="M589.463,1601.912c0,0,0-116.971-134.76-148.068C454.703,1453.844,458.159,1601.912,589.463,1601.912z"/>
			<path fill="#978B1F" d="M454.703,1453.844c0,0,4.055,18.756,16.589,22.443c12.534,3.686,28.017,10.321,26.542,21.381
				s7.373,36.496,33.547,42.025c26.174,5.53,25.068,15.852,27.28,25.437s15.893,31.171,30.802,36.782
				C589.463,1601.912,589.463,1484.941,454.703,1453.844z"/>
		</g>
		<g>
			<path fill="#0C0C0C" d="M595.669,1601.912c0,0,0-122.427,141.047-154.977C736.716,1446.936,733.1,1601.912,595.669,1601.912z"/>
			<path fill="#978B1F" d="M625.386,1578.032c0.369-8.479-0.369-19.169,23.593-22.487c23.962-3.317,31.704-24.699,33.546-49.767
				c1.843-25.067,31.335-26.174,43.146-33.915c7.59-4.976,9.983-13.845,10.726-19.553c0.271-3.433,0.318-5.375,0.318-5.375
				c-141.047,32.55-141.047,154.977-141.047,154.977C606.489,1601.98,625.017,1586.512,625.386,1578.032z"/>
		</g>
		<g>
			<path fill="#0C0C0C" d="M597.302,1419.191c0,0,0-91.396,105.297-115.695C702.599,1303.496,699.899,1419.191,597.302,1419.191z"/>
			<path fill="#978B1F" d="M702.599,1303.496c0,0-3.168,14.655-12.962,17.536c-9.793,2.88-21.892,8.065-20.739,16.706
				c1.152,8.642-5.761,28.517-26.212,32.838c-20.452,4.32-19.587,12.386-21.315,19.875c-1.729,7.488-12.418,24.355-24.068,28.74
				C597.302,1419.191,597.302,1327.795,702.599,1303.496z"/>
		</g>
		<g>
			<path fill="#0C0C0C" d="M592.453,1419.191c0,0,0-95.66-110.209-121.094C482.244,1298.098,485.07,1419.191,592.453,1419.191z"/>
			<path fill="#978B1F" d="M569.234,1400.532c-0.288-6.625,0.288-14.979-18.435-17.57c-18.723-2.593-24.772-19.299-26.212-38.887
				c-1.44-19.587-24.484-20.451-33.713-26.5c-5.931-3.887-7.801-10.817-8.381-15.277c-0.212-2.682-0.249-4.2-0.249-4.2
				c110.209,25.434,110.209,121.094,110.209,121.094C583.999,1419.244,569.522,1407.157,569.234,1400.532z"/>
		</g>
	</g>
	<g>
		<path fill="#978B1F" d="M1724.776,1601.912c0,0,0-54.213-62.459-68.627C1662.317,1533.285,1663.919,1601.912,1724.776,1601.912z"
			/>
		<path fill="#978B1F" d="M1724.776,1601.912c0,0,0-54.213,62.46-68.627C1787.236,1533.285,1785.635,1601.912,1724.776,1601.912z"/>
		<path fill="#978B1F" d="M1724.776,1436.688c0,0,0-54.214-62.459-68.628C1662.317,1368.06,1663.919,1436.688,1724.776,1436.688z"/>
		<path fill="#978B1F" d="M1724.776,1436.688c0,0,0-54.214,62.46-68.628C1787.236,1368.06,1785.635,1436.688,1724.776,1436.688z"/>
		<g>
			<line fill="#0C0C0C" x1="1724.776" y1="1270.621" x2="1724.776" y2="1713.439"/>
			<path d="M1724.776,1718.359c-2.717,0-4.92-2.203-4.92-4.92v-442.818c0-2.718,2.203-4.921,4.92-4.921
				c2.718,0,4.921,2.203,4.921,4.921v442.818C1729.697,1716.156,1727.494,1718.359,1724.776,1718.359z"/>
		</g>
		<g>
			<path fill="#978B1F" d="M1724.776,1297.478c0,0,0-54.214-62.459-68.628C1662.317,1228.85,1663.919,1297.478,1724.776,1297.478z"
				/>
			<path fill="#978B1F" d="M1724.776,1297.478c0,0,0-54.214,62.46-68.628C1787.236,1228.85,1785.635,1297.478,1724.776,1297.478z"/>
			<path fill="#978B1F" d="M1699.653,1237.941l25.123-25.123l25.123,25.123c9.502,9.503,9.502,24.91,0,34.412l-25.123,25.123
				l-25.123-25.123C1690.15,1262.852,1690.15,1247.444,1699.653,1237.941z"/>
		</g>
		<path fill="#F37D4F" d="M1758.568,1006.89L1758.568,1006.89c9.001,9.631,21.726,14.901,34.9,14.456l0,0
			c26.416-0.893,48.069,20.761,47.177,47.177l0,0c-0.445,13.175,4.825,25.899,14.456,34.9l0,0c19.31,18.048,19.31,48.67,0,66.718
			l0,0c-9.631,9.001-14.901,21.726-14.456,34.9l0,0c0.893,26.416-20.761,48.069-47.177,47.177l0,0
			c-13.175-0.445-25.899,4.825-34.9,14.456l0,0c-18.048,19.31-48.67,19.31-66.718,0l0,0c-9.001-9.631-21.726-14.901-34.9-14.456l0,0
			c-26.416,0.893-48.069-20.761-47.177-47.177l0,0c0.445-13.175-4.825-25.899-14.456-34.9l0,0c-19.311-18.048-19.311-48.67,0-66.718
			l0,0c9.631-9.001,14.901-21.726,14.456-34.9l0,0c-0.893-26.416,20.761-48.069,47.177-47.177l0,0
			c13.175,0.445,25.899-4.825,34.9-14.456l0,0C1709.898,987.579,1740.521,987.579,1758.568,1006.89z"/>
		<circle fill="#F25D23" cx="1725.209" cy="1136.781" r="116.043"/>
		<circle fill="#0C0C0C" cx="1725.209" cy="1136.781" r="92.614"/>
		<path fill="#91D9E7" d="M1713.096,1164.791l-16.132-16.132c-6.743-6.743-6.743-17.676,0-24.419l16.346-16.345
			c6.743-6.743,17.676-6.743,24.419,0l15.727,15.726c6.625,6.625,6.758,17.325,0.299,24.112l-15.939,16.751
			C1731.125,1171.515,1719.958,1171.653,1713.096,1164.791z"/>
		<g>
			<path fill="#F796B5" d="M1632.6,1136.777L1632.6,1136.777L1632.6,1136.777c0-51.146,41.463-92.609,92.609-92.609l0,0l0,0
				C1725.209,1095.314,1683.747,1136.777,1632.6,1136.777z"/>
			<path fill="#F796B5" d="M1817.819,1136.777L1817.819,1136.777L1817.819,1136.777c0-51.146-41.463-92.609-92.61-92.609l0,0l0,0
				C1725.209,1095.314,1766.672,1136.777,1817.819,1136.777z"/>
			<path fill="#F796B5" d="M1632.6,1136.781L1632.6,1136.781L1632.6,1136.781c0,51.147,41.463,92.61,92.609,92.61l0,0l0,0
				C1725.209,1178.244,1683.747,1136.781,1632.6,1136.781z"/>
			<path fill="#F796B5" d="M1817.819,1136.781L1817.819,1136.781L1817.819,1136.781c0,51.147-41.463,92.61-92.61,92.61l0,0l0,0
				C1725.209,1178.244,1766.672,1136.781,1817.819,1136.781z"/>
		</g>
		<path fill="#978B1F" d="M1699.653,1377.151l25.123-25.123l25.123,25.123c9.502,9.503,9.502,24.909,0,34.412l-25.123,25.123
			l-25.123-25.123C1690.15,1402.061,1690.15,1386.654,1699.653,1377.151z"/>
		<path fill="#978B1F" d="M1699.653,1542.376l25.123-25.123l25.123,25.123c9.502,9.503,9.502,24.91,0,34.413l-25.123,25.123
			l-25.123-25.123C1690.15,1567.286,1690.15,1551.879,1699.653,1542.376z"/>
	</g>
	<g>
		<g>
			<line fill="#0C0C0C" x1="1181.499" y1="1265.7" x2="1181.499" y2="1708.52"/>
			<path d="M1181.499,1713.439c-2.717,0-4.92-2.203-4.92-4.92V1265.7c0-2.717,2.203-4.92,4.92-4.92c2.718,0,4.92,2.203,4.92,4.92
				v442.819C1186.419,1711.236,1184.217,1713.439,1181.499,1713.439z"/>
		</g>
		<g>
			<g>
				<path fill="#F796B5" d="M1247.399,932.343c-83.164,80.369-63.991,160.571-63.991,160.571S1252.489,1047.883,1247.399,932.343z"
					/>
				<path fill="#F796B5" d="M1118.755,1255.148c-5.09-115.541,63.991-160.572,63.991-160.572S1201.919,1174.778,1118.755,1255.148z"
					/>
				<path fill="#F796B5" d="M1342.924,1158.41c-80.37-83.164-160.572-63.991-160.572-63.991S1227.383,1163.5,1342.924,1158.41z"/>
				<path fill="#F796B5" d="M1021.78,1030.428c115.541-5.09,160.572,63.991,160.572,63.991S1102.149,1113.592,1021.78,1030.428z"/>
				<path fill="#F796B5" d="M1252.818,1253.993c1.977-115.636-68.293-158.79-68.293-158.79S1167.521,1175.893,1252.818,1253.993z"/>
				<path fill="#F796B5" d="M1114.942,933.413c85.298,78.1,68.293,158.79,68.293,158.79S1112.966,1049.048,1114.942,933.413z"/>
				<path fill="#F796B5" d="M1023.59,1162.642c115.636,1.976,158.79-68.293,158.79-68.293S1101.69,1077.343,1023.59,1162.642z"/>
				<path fill="#F796B5" d="M1344.171,1024.765c-78.101,85.299-158.79,68.293-158.79,68.293S1228.535,1022.789,1344.171,1024.765z"
					/>
			</g>
			<g>
				<path fill="#F35A3B" d="M1183.12,903.484c-51.97,115.364,0,189.11,0,189.11S1235.09,1018.849,1183.12,903.484z"/>
				<path fill="#F35A3B" d="M1183.12,1283.662c-51.97-115.365,0-189.11,0-189.11S1235.09,1168.297,1183.12,1283.662z"/>
				<path fill="#F35A3B" d="M1371.766,1094.552c-115.364-51.97-189.11,0-189.11,0S1256.401,1146.521,1371.766,1094.552z"/>
				<path fill="#F35A3B" d="M993.545,1094.552c115.365-51.97,189.11,0,189.11,0S1108.91,1146.521,993.545,1094.552z"/>
				<path fill="#F35A3B" d="M1318.904,1228.189c-44.827-118.322-133.722-133.721-133.722-133.721
					S1200.581,1183.363,1318.904,1228.189z"/>
				<path fill="#F35A3B" d="M1048.934,958.22c118.324,44.827,133.721,133.722,133.721,133.722S1093.761,1076.543,1048.934,958.22z"
					/>
				<path fill="#F35A3B" d="M1048.934,1228.189c118.324-44.826,133.721-133.721,133.721-133.721
					S1093.761,1109.867,1048.934,1228.189z"/>
				<path fill="#F35A3B" d="M1318.904,958.22c-44.827,118.323-133.722,133.722-133.722,133.722S1200.581,1003.047,1318.904,958.22z"
					/>
			</g>
			<circle fill="#0C0C0C" cx="1183.12" cy="1094.552" r="24.939"/>
		</g>
		<path fill="#978B1F" d="M1178.773,1337.369c0,0-4.31-62.593-33.451-33.451C1116.181,1333.061,1178.773,1337.369,1178.773,1337.369
			z"/>
		<path fill="#978B1F" d="M1183.144,1418.479c0,0,4.31-62.593,33.451-33.45C1245.736,1414.171,1183.144,1418.479,1183.144,1418.479z
			"/>
		<path fill="#978B1F" d="M1178.773,1499.59c0,0-4.31-62.593-33.451-33.451C1116.181,1495.281,1178.773,1499.59,1178.773,1499.59z"
			/>
		<path fill="#978B1F" d="M1183.144,1580.7c0,0,4.31-62.593,33.451-33.45C1245.736,1576.392,1183.144,1580.7,1183.144,1580.7z"/>
		<path fill="#978B1F" d="M1178.773,1661.811c0,0-4.31-62.593-33.451-33.451C1116.181,1657.502,1178.773,1661.811,1178.773,1661.811
			z"/>
	</g>
</g>
</svg>
